<svg width="32" height="32" viewBox="0 0 32 32" fill="none" xmlns="http://www.w3.org/2000/svg">
<rect width="32" height="32" rx="10" fill="url(#paint0_linear_759_114457)"/>
<path d="M7.36017 13.9726C6.18683 11.8393 5.72461 10.0971 5.72461 8.92373C5.72461 7.7504 6.00905 7.4304 6.2935 7.14595C6.57794 6.86151 7.8935 6.07929 8.14239 5.90151C8.35572 5.75929 9.20905 5.43929 9.74239 6.22151C10.2757 7.00373 11.2713 8.53262 11.9824 9.56373C13.0846 11.0215 12.1957 11.6615 11.9113 12.0526C11.3779 12.7637 11.0935 12.9415 11.0935 13.7948C11.0935 14.6482 13.5113 17.1371 14.0802 17.7415C14.6491 18.346 17.0668 20.4437 17.8135 20.586C18.5602 20.6926 19.5913 19.9104 19.8046 19.6971C20.9068 18.8437 21.5113 19.4837 22.0091 19.7682C22.5068 20.0526 24.7824 21.4748 25.4935 21.9371C26.1691 22.3993 26.0979 23.146 26.0979 23.146C26.0979 23.146 25.6357 24.5326 24.5691 25.5637C24.3202 25.8126 23.8579 26.1326 22.7557 26.1326C21.6535 26.1326 20.4446 25.9193 17.6002 24.3548C15.2891 23.0748 13.0846 21.0837 11.9113 19.9104C10.7379 18.7726 8.71128 16.426 7.36017 13.9726Z" fill="white"/>
<defs>
<linearGradient id="paint0_linear_759_114457" x1="16" y1="0" x2="16" y2="32" gradientUnits="userSpaceOnUse">
<stop stop-color="#65FE7F"/>
<stop offset="1" stop-color="#05B723"/>
</linearGradient>
</defs>
</svg>
