<svg width="32" height="32" viewBox="0 0 32 32" fill="none" xmlns="http://www.w3.org/2000/svg">
<rect width="32" height="32" rx="10" fill="#0064FF"/>
<path d="M16.871 11.8511L17.5346 8.67431C17.542 8.63734 17.5403 8.59907 17.5296 8.56293C17.5189 8.52679 17.4996 8.49391 17.4733 8.46723C17.447 8.44055 17.4146 8.4209 17.3789 8.41005C17.3433 8.39919 17.3056 8.39746 17.2692 8.40501C16.2491 8.59234 15.2537 8.89866 14.303 9.31787C9.82966 11.2417 7.12063 15.0111 8.26033 17.7443C9.11885 19.7876 11.8983 20.6594 15.13 20.152L14.4649 23.3265C14.4575 23.3634 14.4592 23.4017 14.4699 23.4378C14.4806 23.474 14.4999 23.5069 14.5262 23.5336C14.5525 23.5602 14.5849 23.5799 14.6206 23.5907C14.6562 23.6016 14.6939 23.6033 14.7303 23.5958C15.7505 23.4077 16.746 23.1014 17.6973 22.6829C22.1781 20.7575 24.8789 16.9874 23.7392 14.2557C22.8822 12.2154 20.1027 11.3444 16.871 11.8511Z" fill="white"/>
</svg>
