<svg width="52" height="52" viewBox="0 0 52 52" fill="none" xmlns="http://www.w3.org/2000/svg">
<rect width="52" height="52" rx="26" fill="#F5F5F5"/>
<path d="M17.581 21.24L18.2241 21.6258L18.2241 21.6258L17.581 21.24ZM19.1928 18.5536L19.836 18.9395L19.836 18.9395L19.1928 18.5536ZM33.0572 18.5536L32.414 18.9395L32.414 18.9395L33.0572 18.5536ZM34.669 21.24L34.0259 21.6258L34.669 21.24ZM31.601 17.0948L31.3729 17.8092L31.3729 17.8092L31.601 17.0948ZM32.3133 17.4981L32.8085 16.9348L32.8085 16.9348L32.3133 17.4981ZM19.9367 17.4981L20.432 18.0613L20.432 18.0613L19.9367 17.4981ZM20.649 17.0948L20.4208 16.3803L20.4208 16.3803L20.649 17.0948ZM35.0988 22.2311L34.3586 22.3522L34.3586 22.3522L35.0988 22.2311ZM34.9836 21.8153L35.6806 21.5383L35.6806 21.5383L34.9836 21.8153ZM34.033 34.782L33.6925 34.1138L33.6925 34.1138L34.033 34.782ZM34.907 33.908L34.2388 33.5675L34.2388 33.5675L34.907 33.908ZM17.343 33.908L16.6747 34.2485L16.6747 34.2485L17.343 33.908ZM18.217 34.782L18.5575 34.1138L18.5575 34.1138L18.217 34.782ZM17.1512 22.2311L16.4111 22.1101L16.4111 22.1101L17.1512 22.2311ZM17.2664 21.8153L16.5694 21.5383L16.5694 21.5383L17.2664 21.8153ZM18.125 21.25C17.7108 21.25 17.375 21.5858 17.375 22C17.375 22.4142 17.7108 22.75 18.125 22.75V21.25ZM34.125 22.75C34.5392 22.75 34.875 22.4142 34.875 22C34.875 21.5858 34.5392 21.25 34.125 21.25V22.75ZM24.125 25.25C23.7108 25.25 23.375 25.5858 23.375 26C23.375 26.4142 23.7108 26.75 24.125 26.75V25.25ZM28.125 26.75C28.5392 26.75 28.875 26.4142 28.875 26C28.875 25.5858 28.5392 25.25 28.125 25.25V26.75ZM25.375 22C25.375 22.4142 25.7108 22.75 26.125 22.75C26.5392 22.75 26.875 22.4142 26.875 22H25.375ZM26.875 17C26.875 16.5858 26.5392 16.25 26.125 16.25C25.7108 16.25 25.375 16.5858 25.375 17H26.875ZM17.125 22.8863H16.375V31.8H17.125H17.875V22.8863H17.125ZM20.325 35V35.75H31.925V35V34.25H20.325V35ZM35.125 31.8H35.875V22.8863H35.125H34.375V31.8H35.125ZM17.581 21.24L18.2241 21.6258L19.836 18.9395L19.1928 18.5536L18.5497 18.1677L16.9379 20.8541L17.581 21.24ZM21.9368 17V17.75H30.3132V17V16.25H21.9368V17ZM33.0572 18.5536L32.414 18.9395L34.0259 21.6258L34.669 21.24L35.3121 20.8541L33.7003 18.1677L33.0572 18.5536ZM30.3132 17V17.75C31.0234 17.75 31.2138 17.7584 31.3729 17.8092L31.601 17.0948L31.8292 16.3803C31.3947 16.2416 30.9243 16.25 30.3132 16.25V17ZM33.0572 18.5536L33.7003 18.1677C33.3859 17.6437 33.1511 17.236 32.8085 16.9348L32.3133 17.4981L31.818 18.0613C31.9435 18.1716 32.0486 18.3305 32.414 18.9395L33.0572 18.5536ZM31.601 17.0948L31.3729 17.8092C31.5371 17.8617 31.6886 17.9475 31.818 18.0613L32.3133 17.4981L32.8085 16.9348C32.5238 16.6845 32.1904 16.4957 31.8292 16.3803L31.601 17.0948ZM19.1928 18.5536L19.836 18.9395C20.2014 18.3305 20.3065 18.1716 20.432 18.0613L19.9367 17.4981L19.4415 16.9348C19.0989 17.236 18.8641 17.6437 18.5497 18.1677L19.1928 18.5536ZM21.9368 17V16.25C21.3257 16.25 20.8553 16.2416 20.4208 16.3803L20.649 17.0948L20.8771 17.8092C21.0362 17.7584 21.2266 17.75 21.9368 17.75V17ZM19.9367 17.4981L20.432 18.0613C20.5614 17.9475 20.7129 17.8617 20.8771 17.8092L20.649 17.0948L20.4208 16.3803C20.0596 16.4957 19.7262 16.6845 19.4415 16.9348L19.9367 17.4981ZM35.125 22.8863H35.875C35.875 22.58 35.8773 22.3444 35.8389 22.1101L35.0988 22.2311L34.3586 22.3522C34.3727 22.4386 34.375 22.5329 34.375 22.8863H35.125ZM34.669 21.24L34.0259 21.6258C34.2077 21.9289 34.2543 22.0109 34.2866 22.0923L34.9836 21.8153L35.6806 21.5383C35.5929 21.3177 35.4697 21.1168 35.3121 20.8541L34.669 21.24ZM35.0988 22.2311L35.8389 22.1101C35.8069 21.9143 35.7538 21.7226 35.6806 21.5383L34.9836 21.8153L34.2866 22.0923C34.3199 22.1761 34.3441 22.2632 34.3586 22.3522L35.0988 22.2311ZM31.925 35V35.75C32.4727 35.75 32.9285 35.7506 33.2997 35.7203C33.6796 35.6892 34.0362 35.6221 34.3735 35.4503L34.033 34.782L33.6925 34.1138C33.6019 34.1599 33.4646 34.2018 33.1775 34.2252C32.8816 34.2494 32.4974 34.25 31.925 34.25V35ZM35.125 31.8H34.375C34.375 32.3724 34.3744 32.7566 34.3502 33.0525C34.3268 33.3396 34.2849 33.4769 34.2388 33.5675L34.907 33.908L35.5753 34.2485C35.7471 33.9112 35.8142 33.5546 35.8453 33.1747C35.8756 32.8035 35.875 32.3477 35.875 31.8H35.125ZM34.033 34.782L34.3735 35.4503C34.8909 35.1866 35.3116 34.7659 35.5753 34.2485L34.907 33.908L34.2388 33.5675C34.1189 33.8027 33.9277 33.9939 33.6925 34.1138L34.033 34.782ZM17.125 31.8H16.375C16.375 32.3477 16.3744 32.8035 16.4047 33.1747C16.4358 33.5546 16.5029 33.9112 16.6747 34.2485L17.343 33.908L18.0112 33.5675C17.9651 33.4769 17.9232 33.3396 17.8998 33.0525C17.8756 32.7566 17.875 32.3724 17.875 31.8H17.125ZM20.325 35V34.25C19.7526 34.25 19.3684 34.2494 19.0725 34.2252C18.7854 34.2018 18.6481 34.1599 18.5575 34.1138L18.217 34.782L17.8765 35.4503C18.2138 35.6221 18.5704 35.6892 18.9503 35.7203C19.3215 35.7506 19.7773 35.75 20.325 35.75V35ZM17.343 33.908L16.6747 34.2485C16.9384 34.7659 17.3591 35.1866 17.8765 35.4503L18.217 34.782L18.5575 34.1138C18.3223 33.9939 18.1311 33.8027 18.0112 33.5675L17.343 33.908ZM17.125 22.8863H17.875C17.875 22.5329 17.8773 22.4386 17.8914 22.3522L17.1512 22.2311L16.4111 22.1101C16.3727 22.3444 16.375 22.58 16.375 22.8863H17.125ZM17.581 21.24L16.9379 20.8541C16.7803 21.1168 16.6571 21.3177 16.5694 21.5383L17.2664 21.8153L17.9634 22.0923C17.9957 22.0109 18.0423 21.9289 18.2241 21.6258L17.581 21.24ZM17.1512 22.2311L17.8914 22.3522C17.9059 22.2632 17.9301 22.1761 17.9634 22.0923L17.2664 21.8153L16.5694 21.5383C16.4962 21.7226 16.4431 21.9143 16.4111 22.1101L17.1512 22.2311ZM18.125 22V22.75H34.125V22V21.25H18.125V22ZM24.125 26V26.75H28.125V26V25.25H24.125V26ZM26.125 22H26.875V17H26.125H25.375V22H26.125Z" fill="#C2C2C2"/>
</svg>
