<svg width="52" height="52" viewBox="0 0 52 52" fill="none" xmlns="http://www.w3.org/2000/svg">
<rect width="52" height="52" rx="26" fill="#2866EC"/>
<path d="M28.875 24H22.875M19.875 16H31.875C32.9796 16 33.875 16.8954 33.875 18V32.7639C33.875 34.2507 32.3104 35.2177 30.9806 34.5528L30.7694 34.4472C30.2064 34.1657 29.5436 34.1657 28.9806 34.4472L26.7694 35.5528C26.2064 35.8343 25.5436 35.8343 24.9806 35.5528L22.7694 34.4472C22.2064 34.1657 21.5436 34.1657 20.9806 34.4472L20.7694 34.5528C19.4396 35.2177 17.875 34.2507 17.875 32.7639V18C17.875 16.8954 18.7704 16 19.875 16Z" stroke="white" stroke-width="1.5" stroke-linecap="round"/>
</svg>
