<svg width="52" height="52" viewBox="0 0 52 52" fill="none" xmlns="http://www.w3.org/2000/svg">
<rect x="0.5" y="0.5" width="51" height="51" rx="25.5" fill="#F3F7FF" stroke="#2866EC"/>
<path d="M28.375 31.5V19.5C28.375 19.2239 28.1511 19 27.875 19H16.875C16.5989 19 16.375 19.2239 16.375 19.5V31.5C16.375 31.7761 16.5989 32 16.875 32H18.375M28.375 31.5C28.375 31.7761 28.1511 32 27.875 32H22.375M28.375 31.5V22.5C28.375 22.2239 28.5989 22 28.875 22H32.1679C32.3005 22 32.4277 22.0527 32.5214 22.1464L36.2286 25.8536C36.3223 25.9473 36.375 26.0745 36.375 26.2071V31.5C36.375 31.7761 36.1511 32 35.875 32H34.375M28.375 31.5C28.375 31.7761 28.5989 32 28.875 32H30.375M18.375 32C18.375 33.1046 19.2704 34 20.375 34C21.4796 34 22.375 33.1046 22.375 32M18.375 32C18.375 30.8954 19.2704 30 20.375 30C21.4796 30 22.375 30.8954 22.375 32M30.375 32C30.375 33.1046 31.2704 34 32.375 34C33.4796 34 34.375 33.1046 34.375 32M30.375 32C30.375 30.8954 31.2704 30 32.375 30C33.4796 30 34.375 30.8954 34.375 32" stroke="#2866EC" stroke-width="1.5"/>
</svg>
