<svg width="52" height="52" viewBox="0 0 52 52" fill="none" xmlns="http://www.w3.org/2000/svg">
<rect width="52" height="52" rx="26" fill="#2866EC"/>
<path d="M28.6256 21H30.7633C31.8126 21 32.6835 21.8109 32.7583 22.8575L33.4726 32.8575C33.5552 34.0152 32.6383 35 31.4776 35H19.7735C18.6129 35 17.6959 34.0152 17.7786 32.8575L18.4929 22.8575C18.5677 21.8109 19.4385 21 20.4878 21H22.6256M28.6256 21H22.6256M28.6256 21V19C28.6256 17.3431 27.2824 16 25.6256 16C23.9687 16 22.6256 17.3431 22.6256 19V21M28.6255 26L24.7657 29.8893C24.6192 30.0369 24.3818 30.0369 24.2353 29.8893L22.6255 28.2672" stroke="white" stroke-width="1.5" stroke-linecap="round"/>
</svg>
