<svg width="24" height="24" viewBox="0 0 24 24" fill="none" xmlns="http://www.w3.org/2000/svg">
<path d="M6.2 19L5 16H8.6L11 17L9.5 19.5L6.2 19Z" fill="white" stroke="#2866EC" stroke-width="1.5998"/>
<circle cx="8" cy="17" r="2.25" fill="white" stroke="#2866EC" stroke-width="1.5"/>
<path d="M6.40077 8.80047L20.799 3.20117V20.799L7.20067 15.1997H3.20117V8.80047H6.40077Z" fill="white" stroke="#2866EC" stroke-width="1.5998"/>
<path d="M21 20.2664V3.73363C21 3.38121 20.6452 3.13939 20.3172 3.26825L7.08813 8.46538C7.0299 8.48826 6.96788 8.5 6.90531 8.5H3.5C3.22386 8.5 3 8.72386 3 9V15C3 15.2761 3.22386 15.5 3.5 15.5H6.90531C6.96788 15.5 7.0299 15.5117 7.08813 15.5346L20.3172 20.7317C20.6452 20.8606 21 20.6188 21 20.2664Z" fill="#F3F7FF" stroke="#2866EC" stroke-width="1.5"/>
</svg>
