<svg width="40" height="40" viewBox="0 0 40 40" fill="none" xmlns="http://www.w3.org/2000/svg">
<rect width="40" height="40" fill="white"/>
<path d="M17 28C18.1046 28 19 28.8954 19 30C19 31.1046 18.1046 32 17 32C15.8954 32 15 31.1046 15 30C15 28.8954 15.8954 28 17 28ZM28 28C29.1046 28 30 28.8954 30 30C30 31.1046 29.1046 32 28 32C26.8954 32 26 31.1046 26 30C26 28.8954 26.8954 28 28 28ZM13 9C13.4766 9 13.8869 9.33638 13.9805 9.80371L14.8203 14H31C31.298 14 31.5805 14.1328 31.7705 14.3623C31.9605 14.5919 32.0383 14.8948 31.9824 15.1875L30.3818 23.5771L30.3809 23.585C30.2437 24.2755 29.8677 24.8954 29.3193 25.3369C28.776 25.7743 28.0975 26.0078 27.4004 25.999V26H17.6797V25.999C16.9826 26.0079 16.3041 25.7744 15.7607 25.3369C15.2126 24.8956 14.8366 24.2761 14.6992 23.5859L13.0234 15.2129C13.0214 15.2035 13.0194 15.1941 13.0176 15.1846L12.1807 11H9C8.44772 11 8 10.5523 8 10C8 9.44772 8.44772 9 9 9H13ZM16.6602 23.1934L16.6611 23.1953L16.6816 23.2803C16.7387 23.4761 16.8547 23.6505 17.0146 23.7793C17.1975 23.9265 17.4265 24.0045 17.6611 24H27.4189C27.6536 24.0045 27.8826 23.9265 28.0654 23.7793C28.2254 23.6505 28.3414 23.4761 28.3984 23.2803L28.4189 23.1953L29.791 16H15.2207L16.6602 23.1934Z" fill="#222222"/>
</svg>
